<?xml version="1.0"?><svg width="744.09448819" height="1052.3622047" xmlns="http://www.w3.org/2000/svg">
 <metadata id="metadata12390">image/svg+xmlOther map symbolsMohamed IbrahimPublic Domainclker.comother map symbols</metadata>
 <g>
  <title>Layer 1</title>
  <g id="layer1">
   <path d="m569.70343,648.459717c41.430725,0 75.045471,-33.614746 75.045471,-75.109009l0,-477.914742c0,-41.430687 -33.614746,-75.109037 -75.045471,-75.109037l-477.914734,0c-41.430717,0 -75.109056,33.678339 -75.109056,75.109037l0,477.914742c0,41.494263 33.678339,75.109009 75.109056,75.109009l477.914734,0z" id="path4792" fill-rule="nonzero" fill="#231f20"/>
   <path d="m89.788696,33.035721c-34.377327,0 -62.336697,28.02293 -62.336697,62.400246l0,477.914742c0,34.377319 27.95937,62.400208 62.336697,62.400208l477.914734,0c34.377319,0 62.33667,-28.022888 62.33667,-62.400208l0,-477.914742c0,-34.377316 -27.959351,-62.400246 -62.33667,-62.400246l-477.914734,0z" id="path4794" fill-rule="nonzero" fill="#ffffff"/>
   <path d="m156.095001,444.10199c147.231995,61.956024 259.069,98.049011 416.595001,147.676025c3.177002,0.508972 6.164001,-1.715027 6.671997,-5.083008c0.507996,-3.177002 -1.716003,-6.291016 -4.955994,-6.926025c-248.076019,-78.095978 -442.902008,-164.578979 -487.319603,-184.658997c-4.575104,-1.906982 -9.912804,0.254028 -11.692101,4.702026c-1.842804,4.574982 0.127098,9.531982 4.638695,11.310974c10.993202,4.956024 21.923004,9.786011 32.471001,14.361023l-34.949196,26.687988c-4.003304,5.846008 -2.287605,13.281006 3.558495,17.283997c4.384506,2.923004 10.548302,2.605011 14.805702,-0.126984l60.176003,-25.22702l0,0l0,0z" id="path4796" fill-rule="nonzero" fill="#231f20"/>
   <path d="m483.431274,201.809021c23.193542,0 41.939087,-18.872574 41.939087,-42.066147c0,-23.193573 -18.745544,-42.066154 -41.939087,-42.066154c-23.320679,0 -42.066162,18.872581 -42.066162,42.066154c0,23.193573 18.745483,42.066147 42.066162,42.066147" id="path4798" fill-rule="nonzero" fill="#231f20"/>
   <path d="m365.804016,299.797211l89.342926,-43.908936l82.924957,76.316406c3.685547,3.622009 8.769104,5.846039 14.233887,5.846039c11.183716,-0.127075 20.143433,-9.213898 20.016357,-20.207001c0,-5.973145 -2.732361,-11.310852 -6.862732,-15.059937l-118.509644,-108.850937c-3.939728,-3.812653 -8.578461,-6.9263 -13.661957,-9.150345l-92.202423,-32.915817l-41.939056,-60.684555c-3.240753,-4.44809 -8.197174,-7.434662 -14.043243,-8.197182c-10.929565,-1.207336 -20.969543,6.735664 -22.176849,17.792336c-0.508362,4.575165 0.571869,9.023247 2.859467,12.772346l42.765137,62.018974c2.033417,2.478226 4.511627,4.638718 7.498199,5.973145l49.627899,19.508026l-81.527008,41.684891c-11.437927,6.417938 -19.508026,17.85585 -21.732056,31.136581l0.381256,74.600708l-75.426773,33.996033c-8.451355,4.130371 -14.488037,12.518188 -14.869293,22.621704c-0.635452,14.360931 10.548309,26.434296 24.909256,27.006195c4.511627,0.254181 8.832611,-0.698975 12.581711,-2.605286l92.265945,-41.684906c6.545044,-3.494904 11.501495,-9.785767 13.153625,-17.474609l-0.127106,-46.450684l64.052399,57.38028l-11.819183,97.667175c0,0.571899 -0.127075,1.207336 -0.127075,1.842773c-0.635437,14.4245 10.548309,26.561401 24.972778,27.196838c13.534882,0.508362 25.036377,-9.340973 26.942688,-22.621674l13.725525,-111.456238c0,-0.444794 0.127075,-0.953156 0.127075,-1.461517c0.254181,-7.815918 -2.859467,-14.869293 -8.070099,-19.889282l-59.286591,-52.741547z" id="path4800" fill-rule="nonzero" fill="#231f20"/>
   <rect fill="#ffffff" x="76.913346" y="427.738686" width="70.619384" height="63.652197" id="svg_1" transform="rotate(23.130399703979492 112.22399902343761,459.5660095214843) "/>
   <circle fill="#000000" cx="128.905518" cy="458.13784" r="18.181641" id="svg_5"/>
   <circle fill="#000000" cx="488.40586" cy="590.637718" r="18.529297" id="svg_6"/>
  </g>
 </g>
</svg>